<?xml version="1.0" standalone="no"?>
<!DOCTYPE svg PUBLIC "-//W3C//DTD SVG 20010904//EN"
 "http://www.w3.org/TR/2001/REC-SVG-20010904/DTD/svg10.dtd">
<svg version="1.0" xmlns="http://www.w3.org/2000/svg"
 width="270.000000pt" height="454.000000pt" viewBox="0 0 270.000000 454.000000"
 preserveAspectRatio="xMidYMid meet">
<metadata>
Created by potrace 1.16, written by Peter Selinger 2001-2019
</metadata>
<g transform="translate(0.000000,454.000000) scale(0.100000,-0.100000)"
fill="#5c416e" stroke="none">
<path d="M955 4350 c-4 -6 8 -42 28 -78 19 -37 38 -82 42 -100 7 -33 6 -33
-17 -22 -12 7 -31 21 -41 32 -15 15 -30 18 -80 16 -70 -3 -80 -16 -53 -69 9
-17 19 -54 22 -81 4 -27 13 -52 20 -55 8 -3 14 -11 14 -19 0 -7 13 -33 29 -56
16 -24 25 -45 20 -47 -6 -1 -39 11 -75 28 -36 17 -71 31 -79 31 -8 0 -29 13
-47 29 -18 15 -39 26 -45 24 -17 -6 -16 -34 1 -58 7 -11 16 -30 20 -42 7 -23
6 -23 -78 -23 -91 0 -136 -11 -136 -34 0 -17 73 -138 111 -186 16 -19 29 -37
29 -41 0 -4 -36 -22 -80 -40 -61 -25 -82 -39 -86 -55 -7 -28 2 -44 25 -44 10
0 30 -9 44 -20 53 -42 134 -70 202 -70 36 0 65 -3 65 -8 0 -19 -100 -111 -145
-133 -69 -35 -67 -54 13 -98 52 -29 63 -39 58 -56 -3 -11 -13 -48 -23 -82 -15
-53 -15 -63 -3 -78 12 -15 25 -16 79 -11 65 7 101 19 85 28 -5 3 -25 11 -46
17 -44 14 -53 33 -33 71 19 37 88 106 126 126 17 8 60 47 96 85 68 71 108 89
119 52 3 -10 10 -26 15 -35 12 -24 11 -55 -2 -63 -5 -4 -22 -26 -37 -50 -43
-68 -136 -164 -170 -176 -33 -11 -43 -29 -18 -29 33 0 44 -27 39 -94 -5 -55
-3 -67 11 -72 9 -3 22 -2 29 4 12 9 58 17 162 28 28 3 75 17 107 31 31 14 63
23 71 20 8 -3 24 -25 36 -49 34 -65 66 -94 133 -118 73 -26 107 -18 155 38 43
51 55 36 69 -91 7 -56 19 -138 28 -182 9 -44 21 -105 26 -137 10 -55 16 -610
7 -625 -3 -5 -8 -97 -11 -206 -3 -108 -13 -248 -21 -310 -8 -61 -19 -157 -25
-212 -6 -55 -15 -118 -21 -140 -29 -112 -38 -153 -42 -190 -3 -22 -16 -69 -29
-105 -14 -36 -31 -84 -37 -107 -7 -24 -15 -43 -19 -43 -9 0 -62 160 -62 189 0
32 -45 113 -91 162 -38 41 -40 47 -35 89 19 140 18 204 -3 267 -11 34 -21 65
-21 68 0 9 81 5 101 -5 16 -9 45 -3 67 15 7 6 -32 141 -44 156 -8 8 -14 22
-14 30 0 8 -6 21 -12 27 -16 16 5 32 42 32 25 0 84 34 128 73 14 13 22 32 22
52 0 17 5 36 11 42 7 7 9 19 6 27 -7 18 -37 22 -37 5 0 -17 -91 -123 -113
-132 -37 -14 -137 10 -137 33 0 5 -9 12 -20 15 -14 4 -20 15 -20 35 0 37 24
53 108 75 51 13 71 14 98 5 71 -24 88 15 24 55 -43 27 -43 20 -4 112 16 35 19
99 5 107 -12 8 -21 -18 -21 -58 0 -34 -12 -50 -81 -106 -41 -33 -79 -50 -115
-50 -56 0 -12 92 88 184 72 67 105 86 117 67 6 -9 10 -9 18 1 26 34 23 49 -13
70 -34 20 -36 23 -32 69 2 40 0 50 -17 57 -19 9 -123 9 -170 1 -19 -4 -20 1
-17 76 2 44 6 99 9 122 3 23 0 58 -7 77 -10 32 -16 36 -44 36 -21 0 -40 -8
-52 -21 -10 -11 -40 -36 -66 -55 -26 -19 -50 -45 -54 -57 -7 -24 -33 -57 -44
-57 -7 0 -33 137 -47 245 l-8 60 -35 1 c-28 0 -45 10 -85 48 -58 55 -88 70
-114 56 -26 -13 -32 -35 -20 -68 6 -17 6 -44 1 -67 -7 -34 -12 -40 -32 -37
-14 1 -34 12 -47 24 -21 20 -23 20 -65 3 -81 -32 -99 -61 -99 -167 0 -38 -5
-68 -10 -68 -6 0 -39 10 -75 23 l-65 22 -30 -35 c-33 -39 -32 -24 -13 -277 l7
-81 -71 -21 c-107 -32 -125 -73 -76 -177 20 -42 39 -64 89 -99 63 -46 64 -46
97 -30 18 8 48 26 67 40 32 24 80 34 82 18 1 -5 3 -31 4 -58 2 -33 14 -73 33
-112 28 -55 30 -62 16 -82 -12 -17 -25 -21 -67 -20 -71 1 -156 30 -172 58 -10
20 -13 21 -18 6 -12 -30 -7 -62 11 -76 44 -37 236 -69 273 -46 25 15 35 2 21
-28 -14 -31 -16 -161 -3 -170 13 -7 31 27 31 56 0 38 22 87 42 92 22 6 85 -10
93 -23 4 -6 14 -10 24 -10 18 0 60 -40 79 -75 8 -15 6 -28 -8 -56 -26 -49 -85
-67 -159 -48 -66 17 -87 2 -51 -36 20 -21 32 -25 79 -24 31 0 65 4 76 8 29 12
45 -6 45 -49 0 -57 18 -141 37 -169 l17 -26 7 35 c4 19 9 64 10 100 4 115 38
180 94 180 31 0 35 -102 9 -248 -16 -90 -18 -94 -50 -110 -36 -17 -44 -36 -18
-46 29 -11 44 -6 54 19 10 27 24 46 52 73 10 9 18 22 18 29 0 21 34 93 44 93
7 0 133 -126 213 -215 70 -77 106 -164 118 -280 3 -33 13 -102 22 -152 15 -90
14 -209 -2 -245 -6 -16 -1 -18 44 -18 49 0 51 1 52 28 1 15 1 30 0 35 -3 17
31 186 60 300 17 67 42 174 55 237 13 63 31 147 39 185 67 317 84 457 91 755
3 135 7 297 9 360 1 63 -1 142 -6 175 -4 33 -9 105 -10 160 -1 55 -7 116 -14
135 -7 19 -13 53 -13 75 -1 22 -9 65 -17 95 -8 30 -20 80 -25 110 -6 30 -16
81 -24 113 -9 40 -10 59 -3 64 6 4 41 6 79 5 56 -2 74 2 106 22 48 30 56 41
76 103 l17 52 82 -5 c115 -8 275 30 319 75 23 24 35 29 58 25 39 -8 42 5 14
64 -28 59 -53 77 -96 68 -20 -4 -44 2 -78 19 -27 14 -56 25 -65 25 -8 0 -15 9
-15 19 0 17 -10 20 -67 27 -83 8 -173 46 -173 72 0 25 78 60 151 68 60 6 243
-12 271 -27 9 -5 24 -16 32 -25 19 -18 46 -12 46 10 0 22 -52 46 -98 46 -24 0
-49 8 -63 19 -24 19 -24 19 -5 40 11 12 16 24 13 27 -3 4 -37 1 -74 -6 -37 -8
-106 -14 -152 -14 -84 -1 -84 -1 -88 26 -7 50 47 84 222 143 72 24 142 13 176
-28 17 -21 31 -28 42 -24 26 10 20 32 -15 59 -44 33 -91 48 -151 48 -41 0 -48
3 -43 16 3 9 6 22 6 30 0 8 7 14 15 14 9 0 15 9 15 25 0 36 -13 31 -39 -15
-14 -24 -30 -40 -41 -40 -10 0 -21 -4 -24 -9 -3 -5 -29 -16 -57 -25 -44 -15
-62 -16 -120 -6 -64 11 -69 14 -69 37 0 36 108 133 165 148 29 7 29 8 8 17
-16 8 -31 7 -55 -5 -35 -16 -88 -32 -88 -26 -6 49 -14 86 -22 94 -11 12 -36
-18 -45 -55 -10 -38 -53 -87 -94 -106 -61 -27 -121 1 -70 33 23 14 34 90 14
98 -17 6 -9 68 19 147 26 72 44 90 57 55 5 -13 17 -27 25 -30 9 -4 16 -13 16
-20 0 -8 9 -22 20 -32 19 -18 20 -17 20 6 0 22 -37 84 -87 147 -17 20 -20 21
-40 7 -12 -8 -27 -32 -34 -53 -16 -49 -42 -95 -56 -99 -7 -3 -23 13 -36 34
-14 21 -35 48 -48 60 -13 12 -37 36 -54 53 -34 34 -71 48 -93 34 -8 -6 -22
-28 -31 -49 -27 -68 -43 -85 -76 -85 -17 0 -36 -5 -43 -12 -11 -11 -57 17
-100 61 -9 10 -42 35 -72 56 -30 21 -69 49 -85 61 -36 27 -109 42 -120 24z
m178 -112 c128 -87 204 -186 224 -292 5 -28 4 -29 -23 -22 -62 15 -195 130
-230 198 -9 18 -23 37 -30 41 -8 4 -14 17 -14 28 0 11 -4 29 -10 39 -11 20 -4
50 12 50 5 0 37 -19 71 -42z m449 -62 c64 -61 76 -95 54 -148 -12 -27 -23 -37
-48 -42 -18 -3 -40 -16 -49 -28 -13 -17 -22 -20 -53 -14 -20 4 -36 13 -36 20
0 8 -11 21 -24 30 -40 26 -42 53 -7 88 17 16 43 56 58 88 16 33 33 59 39 59 6
1 36 -23 66 -53z m-624 -51 c15 -14 43 -41 62 -61 19 -19 72 -72 118 -118 45
-45 82 -88 82 -94 0 -17 -53 -24 -104 -12 -94 21 -157 80 -220 204 -27 53 -45
100 -41 106 12 19 73 4 103 -25z m726 -184 c3 -5 0 -22 -7 -38 -10 -24 -16
-28 -36 -23 -35 8 -36 24 -5 49 29 23 40 26 48 12z m-804 -115 c8 -7 29 -18
47 -25 47 -19 96 -58 83 -66 -20 -13 -76 5 -101 31 -13 14 -41 35 -61 45 -46
23 -54 55 -11 38 16 -6 35 -16 43 -23z m554 25 c4 -5 0 -11 -6 -14 -33 -11 79
-85 136 -90 25 -2 35 5 53 41 3 8 91 -37 109 -55 10 -11 46 -30 79 -43 33 -12
70 -26 83 -31 32 -12 38 -36 18 -70 -9 -16 -15 -29 -11 -29 7 0 -24 -61 -42
-82 -8 -9 -28 -20 -44 -23 -39 -9 -46 -24 -20 -44 29 -22 19 -46 -19 -49 -24
-2 -30 2 -30 18 0 22 -19 27 -37 9 -9 -9 -9 -16 0 -31 15 -23 -7 -42 -38 -32
-11 3 -47 7 -80 9 -33 2 -100 5 -150 9 -88 5 -124 -2 -111 -22 3 -6 32 -14 64
-17 31 -4 73 -15 92 -25 32 -17 47 -22 123 -37 57 -11 23 -33 -51 -33 -94 0
-293 47 -308 72 -4 6 5 20 21 31 l27 20 -30 16 c-16 9 -41 24 -56 35 -22 15
-29 16 -42 5 -14 -11 -18 -10 -30 6 -13 18 -12 21 11 28 25 9 33 31 15 42 -26
16 -5 48 69 105 18 14 40 33 49 44 9 10 34 29 55 42 72 47 28 61 -58 19 -57
-28 -136 -33 -155 -11 -9 12 -5 19 27 36 21 11 45 24 53 29 8 5 29 13 45 18
19 5 29 15 27 24 -3 19 36 38 95 46 37 5 43 9 38 24 -7 20 18 28 29 10z m43
-7 c-3 -3 -12 -4 -19 -1 -8 3 -5 6 6 6 11 1 17 -2 13 -5z m-713 -77 c28 -13
71 -39 96 -58 25 -19 58 -43 74 -53 27 -17 28 -19 10 -30 -29 -17 -195 -12
-235 7 -53 24 -146 135 -136 160 8 20 126 4 191 -26z m436 -156 c0 -8 -37 -44
-57 -55 -17 -9 -53 11 -53 30 0 19 54 42 86 36 13 -2 24 -8 24 -11z m-120 -91
c0 -5 -2 -10 -4 -10 -3 0 -8 5 -11 10 -3 6 -1 10 4 10 6 0 11 -4 11 -10z
m-341 -35 c109 -35 105 -48 -13 -43 -68 3 -101 9 -121 22 -27 18 -28 19 -10
32 27 20 53 18 144 -11z m261 -105 c0 -54 -148 -201 -199 -199 -62 1 -65 10
-21 69 30 40 53 59 86 72 25 10 52 25 61 33 8 8 21 15 29 15 8 0 14 5 14 10 0
6 7 10 15 10 8 0 15 -5 15 -10z m910 -4 c0 -22 -28 -39 -68 -40 -54 -2 -49 24
8 39 61 17 60 17 60 1z m301 -149 c19 -8 52 -31 73 -51 22 -20 44 -36 48 -36
4 0 8 -6 8 -14 0 -20 -67 -44 -109 -39 -79 9 -139 25 -186 48 -26 14 -55 25
-62 25 -16 0 -47 66 -40 84 6 16 222 2 268 -17z m-884 -63 c18 -12 20 -18 12
-51 -5 -21 -9 -68 -9 -105 l0 -66 -57 -51 c-62 -55 -115 -71 -182 -55 -28 7
-37 16 -45 42 -11 38 5 82 30 82 9 0 30 10 47 23 18 12 45 29 62 38 17 9 34
29 38 45 5 16 15 42 23 57 8 16 14 38 14 48 0 16 4 19 23 14 12 -4 32 -13 44
-21z m540 -20 c24 -10 43 -24 43 -30 0 -6 9 -19 20 -29 27 -25 25 -51 -10
-122 -27 -54 -35 -62 -71 -71 -44 -11 -55 -9 -106 16 -30 15 -37 26 -70 110
-4 8 5 12 26 12 36 0 35 -3 15 45 -20 48 -13 65 28 65 18 0 42 7 53 15 10 9
22 14 25 12 3 -2 24 -12 47 -23z m-362 -12 c16 -11 62 -85 70 -109 3 -13 10
-23 14 -23 19 0 61 -103 61 -149 0 -81 -74 -140 -136 -108 -45 24 -80 67 -100
124 -16 46 -17 58 -5 105 7 29 15 73 17 98 3 25 7 51 9 58 5 13 54 16 70 4z
m-573 -647 c29 -32 50 -66 65 -110 35 -105 34 -149 -4 -167 -16 -8 -28 -21
-28 -32 0 -11 -6 -21 -13 -24 -7 -2 -12 5 -12 16 0 24 -21 33 -59 26 -43 -9
-62 26 -68 125 -4 60 -2 93 12 133 30 94 44 98 107 33z m-295 -54 c3 -11 17
-24 32 -31 38 -16 92 -132 98 -214 5 -58 4 -62 -21 -75 -14 -8 -26 -20 -26
-26 0 -6 -6 -20 -14 -30 -13 -17 -15 -16 -39 21 -79 121 -109 374 -45 374 6 0
12 -9 15 -19z m671 -124 c11 -22 10 -31 -3 -56 -8 -17 -15 -36 -15 -44 0 -7
-7 -22 -15 -33 -14 -19 -14 -19 -30 4 -9 12 -20 22 -26 22 -18 0 -9 -31 16
-56 14 -14 25 -28 25 -32 -1 -4 -14 -23 -31 -42 l-30 -35 -19 25 c-45 58 -38
134 20 212 56 74 84 83 108 35z m-808 -102 c7 -8 16 -47 20 -87 12 -101 25
-156 44 -177 9 -10 16 -27 16 -38 0 -19 -1 -19 -62 -4 -72 18 -95 38 -103 90
-3 20 -11 64 -17 99 -10 53 -9 67 5 97 14 30 22 35 51 35 18 0 39 -7 46 -15z
m980 -140 c19 -23 2 -53 -82 -141 -83 -87 -131 -116 -143 -86 -4 10 2 22 16
33 16 12 20 23 16 39 -21 80 145 213 193 155z m-574 -137 c9 30 17 28 57 -12
35 -35 52 -35 58 -1 9 47 47 16 105 -85 9 -16 25 -145 25 -196 -1 -23 4 -33
19 -37 31 -8 35 -35 11 -67 -11 -16 -21 -35 -21 -42 1 -7 -14 -43 -32 -80 -40
-83 -65 -94 -109 -52 -29 28 -37 58 -19 69 16 10 11 35 -7 35 -9 0 -36 -9 -60
-21 -48 -23 -73 -20 -73 10 0 11 -7 24 -16 29 -10 6 -17 26 -19 60 -3 43 -1
54 16 62 26 15 24 47 -3 56 -13 4 -26 12 -30 18 -14 21 -8 151 10 206 26 83
30 87 58 54 24 -29 24 -29 30 -6z m-469 -97 c34 -16 66 -39 72 -50 10 -18 7
-21 -31 -31 -62 -15 -115 -40 -134 -61 -24 -27 -38 -24 -69 17 -19 25 -30 53
-33 85 -5 49 -5 49 26 49 17 0 34 -4 37 -10 11 -18 35 -11 35 10 0 28 23 25
97 -9z m276 -128 c3 -16 6 -47 6 -71 1 -24 6 -52 12 -63 13 -24 5 -49 -15 -49
-16 0 -26 21 -26 55 0 19 -6 24 -32 27 -45 4 -47 32 -8 86 35 49 56 54 63 15z
m692 -328 c83 -90 97 -176 25 -159 -34 8 -46 19 -97 89 -44 60 -52 92 -31 113
24 24 52 12 103 -43z m-444 -29 l8 -28 -24 22 c-14 13 -22 27 -19 32 10 16 28
3 35 -26z m304 -102 c40 -40 92 -171 99 -252 5 -53 3 -65 -14 -82 -27 -27 -55
-25 -79 6 -18 23 -21 41 -21 116 0 91 -13 142 -43 167 -23 19 -21 36 6 49 30
15 33 14 52 -4z M860 1548 c2 -24 32 -84 44 -86 23 -5 20 25 -4 40 -11 7 -20
21 -20 30 0 10 -4 18 -10 18 -5 0 -10 -1 -10 -2z M1070 1525 c0 -16 16 -20 24
-6 3 5 -1 11 -9 15 -9 3 -15 0 -15 -9z M1030 1480 c0 -5 5 -10 11 -10 5 0 7 5
4 10 -3 6 -8 10 -11 10 -2 0 -4 -4 -4 -10z M2290 3916 c0 -9 5 -16 10 -16 6 0
10 4 10 9 0 6 -4 13 -10 16 -5 3 -10 -1 -10 -9z"/>
</g>
</svg>
