<?xml version="1.0" standalone="no"?>
<!DOCTYPE svg PUBLIC "-//W3C//DTD SVG 20010904//EN"
 "http://www.w3.org/TR/2001/REC-SVG-20010904/DTD/svg10.dtd">
<svg version="1.0" xmlns="http://www.w3.org/2000/svg"
 width="340.000000pt" height="200.000000pt" viewBox="0 0 340.000000 200.000000"
 preserveAspectRatio="xMidYMid meet">
<metadata>
Created by potrace 1.16, written by Peter Selinger 2001-2019
</metadata>
<g transform="translate(0.000000,200.000000) scale(0.100000,-0.100000)"
fill="#5c416e" stroke="none">
<path d="M2925 1981 c-51 -31 -150 -143 -178 -201 -31 -65 -57 -160 -57 -211
0 -33 -4 -38 -49 -62 -27 -14 -80 -45 -118 -69 -37 -24 -99 -64 -138 -88 -38
-24 -86 -53 -105 -66 -311 -198 -490 -294 -750 -399 -85 -35 -186 -77 -225
-94 -38 -17 -115 -47 -170 -67 -55 -20 -150 -58 -211 -85 -62 -27 -115 -49
-120 -49 -4 0 -47 -20 -95 -45 -48 -25 -90 -45 -93 -45 -2 0 -9 22 -15 50 -30
137 -135 274 -266 343 -95 51 -105 50 -94 -10 5 -27 27 -85 49 -129 48 -99
132 -183 233 -232 l67 -33 -42 -23 c-24 -12 -97 -51 -163 -86 -96 -51 -273
-157 -294 -176 -2 -2 -2 -7 2 -10 3 -4 75 33 159 81 84 48 171 98 193 110 35
20 128 64 432 206 44 20 101 44 125 53 40 14 135 51 318 124 41 16 100 41 130
55 30 13 138 61 240 106 168 74 309 148 445 236 28 17 84 51 125 75 41 24 96
59 123 77 26 18 50 33 53 33 6 0 60 34 179 112 142 94 322 166 509 206 93 20
118 46 37 38 -28 -3 -59 -9 -68 -14 -10 -5 -36 -13 -58 -17 -44 -7 -149 -41
-178 -57 -11 -6 -2 13 24 48 58 79 109 218 109 299 0 41 -18 45 -65 16z m-6
-68 c-18 -32 -35 -62 -40 -68 -4 -5 -16 -26 -27 -45 -71 -126 -144 -250 -147
-250 -2 0 5 38 15 84 24 110 65 188 135 261 19 20 87 74 93 75 2 0 -11 -26
-29 -57z m36 -25 c-16 -76 -53 -161 -66 -152 -5 3 -6 -1 -4 -9 7 -15 -54 -101
-95 -134 -57 -46 -63 -39 -25 28 20 35 44 79 53 97 12 24 21 32 35 28 14 -3
16 -2 7 9 -9 10 -6 23 12 54 13 23 28 39 35 37 7 -3 10 1 7 9 -5 12 44 110 51
103 2 -2 -3 -33 -10 -70z m-2511 -1103 c34 -33 68 -73 76 -90 8 -16 20 -37 26
-45 16 -19 48 -130 40 -137 -3 -4 -6 0 -6 8 0 12 -29 49 -124 159 -82 96 -95
117 -83 130 10 12 9 12 -4 2 -14 -10 -21 -6 -44 25 -16 21 -33 44 -39 52 -27
36 103 -50 158 -104z m-64 -35 c118 -135 190 -223 186 -228 -10 -9 -125 70
-168 115 -51 55 -117 167 -129 221 l-8 36 27 -34 c15 -19 56 -69 92 -110z
M2079 1903 c-32 -83 -41 -151 -36 -253 4 -89 9 -117 36 -181 31 -72 94 -169
116 -176 13 -4 38 54 55 126 33 139 -28 358 -132 479 l-28 33 -11 -28z m85
-117 c67 -132 80 -209 61 -371 -11 -99 -22 -88 -50 48 -2 10 3 17 13 18 15 1
15 2 0 6 -11 3 -20 18 -24 41 -3 20 -8 45 -11 55 -2 10 1 17 9 17 11 0 11 2 0
9 -12 7 -25 64 -51 223 -11 64 4 51 53 -46z m-34 -136 c17 -102 37 -216 45
-255 l13 -70 -24 30 c-63 77 -104 206 -104 324 0 81 20 189 31 168 4 -6 21
-95 39 -197z M2188 1613 c7 -3 16 -2 19 1 4 3 -2 6 -13 5 -11 0 -14 -3 -6 -6z
M1975 1559 c-5 -5 -37 -30 -70 -55 -77 -58 -118 -110 -167 -210 -34 -70 -40
-93 -45 -173 l-6 -92 37 23 c76 48 144 108 175 157 57 88 100 223 101 314 0
47 -6 55 -25 36z m-46 -96 c-18 -32 -51 -89 -74 -128 -61 -101 -128 -225 -122
-225 3 0 31 44 63 98 93 158 95 162 111 177 8 8 11 15 8 15 -7 0 40 87 57 105
20 22 -20 -153 -48 -208 -13 -24 -18 -26 -37 -17 -21 10 -21 10 -4 -4 12 -9
17 -21 12 -34 -9 -31 -45 -73 -56 -66 -5 3 -8 0 -7 -7 4 -14 -109 -105 -119
-95 -4 3 -2 41 4 83 18 125 91 247 201 336 19 15 37 27 39 27 3 0 -10 -26 -28
-57z M1077 1368 c-67 -183 -34 -395 84 -537 19 -22 36 -41 39 -41 3 0 11 12
18 28 71 151 25 417 -97 560 l-28 33 -16 -43z m92 -438 l19 -105 -24 30 c-86
107 -126 334 -82 465 11 33 13 27 40 -125 16 -88 37 -207 47 -265z m7 314 c48
-101 72 -245 42 -257 -8 -3 -6 -6 4 -6 10 -1 16 -7 13 -13 -2 -7 -9 -39 -15
-71 -11 -53 -20 -66 -26 -34 -26 150 -33 222 -22 229 10 5 8 8 -4 8 -12 0 -19
12 -23 43 -3 23 -8 49 -9 57 -8 43 -17 98 -21 125 -4 29 -4 29 11 10 8 -11 31
-52 50 -91z"/>
</g>
</svg>
