<?xml version="1.0" standalone="no"?>
<!DOCTYPE svg PUBLIC "-//W3C//DTD SVG 20010904//EN"
 "http://www.w3.org/TR/2001/REC-SVG-20010904/DTD/svg10.dtd">
<svg version="1.0" xmlns="http://www.w3.org/2000/svg"
 width="310.000000pt" height="410.000000pt" viewBox="0 0 310.000000 410.000000"
 preserveAspectRatio="xMidYMid meet">
<metadata>
Created by potrace 1.16, written by Peter Selinger 2001-2019
</metadata>
<g transform="translate(0.000000,410.000000) scale(0.100000,-0.100000)"
fill="#5c416e" stroke="none">
<path d="M1476 3904 c-73 -40 -138 -94 -182 -153 -93 -122 -112 -151 -130
-198 -24 -64 -74 -153 -86 -153 -5 0 -19 12 -31 26 -66 78 -109 112 -179 138
-40 15 -99 41 -130 57 -32 16 -64 29 -71 29 -7 0 -32 9 -55 20 -22 11 -48 20
-57 20 -15 0 -15 -2 -1 -15 8 -8 18 -15 23 -15 4 0 33 -17 63 -38 30 -21 82
-51 115 -66 33 -15 80 -41 105 -58 88 -61 189 -211 205 -303 4 -22 15 -67 25
-100 36 -116 35 -111 16 -93 -9 9 -31 45 -50 80 -18 35 -43 79 -55 98 -11 19
-21 45 -21 57 0 35 -11 53 -32 53 -18 0 -19 -5 -12 -69 8 -83 -6 -100 -44 -55
-69 83 -66 80 -70 61 -2 -10 14 -53 36 -95 61 -119 63 -135 13 -84 -35 36 -44
40 -60 30 -15 -9 -24 -7 -50 11 -17 12 -31 27 -31 33 0 5 -19 30 -42 55 -89
94 -98 104 -98 113 0 6 -7 10 -15 10 -16 0 -21 -25 -6 -34 4 -3 11 -19 14 -35
8 -40 83 -148 171 -246 75 -83 112 -135 98 -135 -4 0 -12 4 -18 9 -5 4 -24 13
-41 19 -29 10 -33 9 -33 -7 0 -23 24 -53 67 -83 17 -13 60 -44 94 -70 73 -56
120 -69 149 -43 19 17 21 17 46 0 25 -16 26 -19 11 -30 -10 -7 -43 -15 -74
-19 -47 -5 -60 -3 -77 12 -32 29 -151 84 -171 81 -34 -7 -26 -28 27 -70 29
-23 53 -46 53 -51 0 -6 -20 -18 -46 -27 -67 -26 -152 -18 -230 20 -56 28 -199
135 -239 178 -32 35 -108 90 -134 97 -28 7 -56 -9 -56 -32 0 -8 15 -23 33 -34
40 -25 64 -41 87 -60 9 -8 32 -26 50 -40 19 -14 59 -46 91 -72 31 -27 59 -48
62 -48 4 0 26 -13 50 -30 65 -44 86 -49 194 -49 166 1 188 3 216 22 30 19 48
22 63 7 8 -8 15 -6 24 5 14 17 55 21 45 5 -4 -6 -14 -9 -23 -8 -13 2 -18 -8
-23 -41 -4 -33 -14 -52 -36 -70 -34 -30 -83 -103 -83 -126 0 -8 7 -15 15 -15
23 0 85 33 85 45 0 7 9 20 20 30 11 10 20 15 20 11 0 -9 -31 -57 -48 -75 -24
-25 -45 -111 -27 -111 4 0 49 46 90 92 9 11 27 35 39 53 42 62 88 115 107 126
19 10 19 9 4 -28 -9 -20 -22 -44 -29 -53 -22 -26 -26 -49 -11 -64 13 -13 11
-22 -15 -78 -16 -35 -41 -81 -54 -103 -14 -23 -27 -65 -31 -98 -3 -32 -9 -65
-12 -73 -3 -8 1 -14 11 -14 9 0 18 11 21 28 11 52 39 127 60 157 11 17 32 57
45 88 23 54 42 73 61 62 4 -3 4 -15 -1 -28 -17 -40 -40 -157 -40 -205 0 -26
-5 -64 -11 -86 -9 -32 -8 -41 5 -54 14 -14 16 -13 24 9 5 13 10 43 11 67 1 24
6 65 12 90 6 26 14 67 19 92 5 25 15 61 24 80 18 41 18 40 20 -107 1 -102 16
-138 34 -81 6 18 11 50 10 70 0 20 5 54 12 75 13 41 29 64 27 42 -1 -42 4 -96
12 -108 8 -12 12 -12 24 -2 13 10 16 7 22 -19 4 -18 4 -52 0 -76 -10 -69 4
-151 31 -184 27 -32 31 -62 9 -80 -8 -7 -17 -28 -21 -49 -8 -50 -61 -135 -96
-155 -16 -10 -37 -27 -47 -38 -19 -20 -34 -22 -97 -17 -19 1 -61 -13 -115 -39
-68 -33 -102 -43 -177 -52 -110 -12 -162 -2 -195 38 -84 102 -134 129 -130 69
2 -30 34 -70 103 -133 l43 -39 111 -1 c68 0 134 5 169 14 46 12 63 12 80 3 28
-15 84 7 185 71 140 90 156 90 160 7 2 -31 -4 -85 -13 -120 -9 -35 -21 -93
-26 -129 -5 -36 -14 -98 -20 -139 -6 -41 -19 -93 -29 -115 -59 -131 -63 -147
-86 -356 -4 -30 -10 -62 -15 -70 -4 -9 -10 -36 -14 -60 -4 -24 -11 -52 -16
-62 -5 -9 -9 -25 -9 -36 0 -11 -9 -46 -19 -79 -10 -32 -26 -103 -36 -157 -9
-53 -19 -104 -22 -112 -4 -10 4 -14 30 -14 39 0 47 11 47 67 0 20 7 61 16 92
38 137 44 159 54 206 17 77 41 195 50 247 10 52 30 129 61 227 11 35 25 87 30
115 5 28 14 71 20 96 11 47 29 139 49 250 7 36 14 76 17 90 l5 25 17 -24 c47
-70 98 -119 202 -191 63 -44 127 -90 143 -102 90 -71 91 -71 138 -57 57 18 57
41 -2 53 -49 11 -87 45 -96 89 -6 23 -15 30 -63 43 -31 9 -74 31 -96 49 -22
17 -56 40 -77 49 -48 23 -61 39 -92 118 -18 45 -28 94 -31 145 -3 43 -7 112
-10 153 -5 83 25 214 52 224 8 3 12 2 10 -2 -3 -4 8 -22 23 -41 l29 -34 6 25
c4 14 2 49 -3 79 -6 30 -8 56 -6 58 6 7 42 -42 57 -79 18 -41 41 -165 39 -199
-2 -26 22 -71 38 -71 16 0 23 42 10 64 -8 15 -9 34 -3 57 l9 34 28 -43 c26
-38 57 -54 70 -34 2 4 -15 45 -40 92 -41 79 -42 86 -29 107 9 13 20 23 25 23
10 0 50 -40 50 -49 0 -12 58 -31 74 -25 25 9 20 22 -28 71 -38 38 -65 83 -49
83 8 0 48 -23 53 -30 13 -20 120 -74 155 -79 37 -6 41 -9 48 -46 4 -22 18 -67
29 -100 17 -46 22 -85 23 -165 2 -94 5 -112 32 -174 17 -37 34 -63 37 -57 14
22 18 149 8 259 -8 93 -16 125 -45 190 -19 42 -40 93 -47 112 -6 19 -17 48
-23 63 -16 39 15 96 64 119 34 16 109 94 204 215 22 28 52 58 68 66 15 9 32
28 38 43 9 26 100 124 115 124 15 0 93 92 118 139 32 63 48 191 24 191 -9 0
-19 7 -22 16 -6 15 3 34 46 102 30 49 44 244 22 320 -13 43 -14 60 -5 80 15
31 -1 45 -39 37 -36 -7 -170 -24 -284 -35 -106 -11 -211 -36 -340 -82 -44 -16
-98 -33 -118 -37 -20 -5 -48 -16 -62 -25 -14 -9 -32 -16 -39 -16 -8 0 -20 -7
-27 -15 -7 -8 -21 -15 -31 -15 -16 0 -19 8 -19 48 -1 57 -25 235 -38 277 -5
17 -19 46 -30 65 -12 19 -28 47 -37 62 -8 14 -27 39 -42 55 -32 33 -118 103
-127 103 -13 0 -5 -28 15 -51 25 -29 119 -162 135 -193 30 -54 45 -129 48
-232 2 -60 4 -113 6 -119 1 -5 2 -24 1 -41 -1 -27 -11 -39 -63 -75 -33 -24
-77 -59 -96 -77 -18 -18 -40 -31 -48 -28 -7 3 -27 -6 -43 -19 -19 -17 -41 -25
-65 -25 -36 0 -36 0 -36 44 0 24 -4 67 -10 96 -8 40 -6 68 6 122 12 54 14 76
5 95 -19 41 -31 15 -31 -67 0 -62 -4 -87 -20 -112 -15 -25 -20 -51 -20 -103 0
-88 -7 -98 -52 -90 -32 6 -36 4 -42 -20 -4 -15 -2 -59 5 -99 9 -50 9 -83 2
-111 l-10 -40 -12 30 c-7 17 -15 65 -18 108 -6 75 -15 91 -39 67 -15 -15 -39
-3 -53 26 -6 13 -16 34 -21 47 -6 12 -17 45 -24 72 -8 28 -24 77 -36 111 l-23
60 23 98 c24 104 83 234 141 307 32 40 123 130 161 159 52 39 80 69 74 79 -10
15 -25 13 -60 -5z m1352 -579 c4 -147 -14 -324 -38 -388 -11 -29 -20 -62 -20
-74 0 -25 16 -39 23 -21 10 29 16 -1 7 -33 -18 -60 -61 -111 -108 -127 -29 -9
-46 -22 -53 -39 -11 -30 -122 -141 -170 -171 -20 -12 -52 -22 -72 -22 -43 0
-110 -13 -242 -48 -78 -21 -121 -27 -193 -25 -51 0 -96 4 -100 8 -13 13 42 45
69 40 14 -3 52 1 85 10 32 8 111 18 174 21 76 4 124 11 145 22 16 9 63 27 104
41 88 30 104 51 39 51 -23 0 -61 -5 -83 -11 -22 -7 -80 -20 -130 -31 -49 -10
-108 -23 -130 -28 -22 -4 -56 -5 -75 -1 l-34 7 29 21 c17 11 50 31 75 43 25
12 47 26 50 30 8 11 171 87 203 94 15 3 27 11 27 16 0 14 -48 24 -63 12 -6 -5
-30 -15 -52 -22 -22 -7 -47 -18 -55 -24 -20 -16 -105 -56 -117 -56 -5 0 -36
-13 -69 -29 -32 -17 -74 -33 -93 -36 -18 -3 -47 -13 -63 -21 -18 -9 -34 -12
-39 -7 -6 6 1 15 16 23 14 7 25 17 25 21 0 4 14 22 31 40 23 24 29 39 26 58
-7 36 19 64 45 50 14 -8 28 -7 49 1 27 12 48 45 35 57 -6 7 -57 -16 -67 -30
-3 -5 -9 -2 -12 7 -8 19 36 66 61 66 28 0 43 20 31 42 -23 42 -81 13 -181 -92
-75 -79 -99 -78 -64 2 41 94 95 261 102 321 4 27 17 63 28 80 26 39 168 120
246 142 30 9 89 27 130 40 92 30 149 41 263 50 48 4 106 13 130 21 72 22 72
22 75 -101z m-972 -350 c-11 -69 -24 -121 -37 -142 -27 -43 -132 -129 -137
-113 -5 13 14 85 29 110 4 8 20 35 34 60 15 25 28 62 30 83 3 43 71 135 87
119 6 -6 4 -49 -6 -117z m-177 -111 c-18 -22 -22 -11 -7 22 10 21 14 24 16 10
2 -9 -2 -24 -9 -32z m16 -253 c-8 -17 -31 -42 -51 -57 -31 -24 -37 -25 -50
-12 -25 25 -3 63 48 81 66 23 71 22 53 -12z m7 -157 c5 -3 8 -16 8 -30 0 -17
-6 -24 -19 -24 -24 0 -71 37 -71 57 0 12 7 14 37 8 21 -4 41 -9 45 -11z m688
-79 c9 -11 6 -21 -17 -50 -26 -33 -31 -35 -73 -30 -71 10 -130 28 -130 42 0 7
26 20 58 28 31 9 62 18 67 20 27 9 84 3 95 -10z m-249 -106 c26 -14 24 -26 -8
-42 -19 -10 -37 -11 -58 -6 -16 5 -49 6 -73 3 -26 -4 -47 -2 -56 5 -21 18 -8
49 23 54 38 7 151 -2 172 -14z m-581 -164 c0 -41 -4 -65 -9 -57 -4 7 -9 46 -9
85 -1 49 2 67 8 57 5 -8 10 -46 10 -85z M571 2024 c-37 -47 -54 -158 -49 -332
5 -162 23 -244 56 -257 24 -9 26 1 13 90 -19 122 -15 257 9 376 12 56 23 106
26 110 7 12 -7 39 -21 39 -8 0 -23 -12 -34 -26z M1431 2011 c-15 -26 -14 -64
1 -79 22 -22 28 -13 28 37 0 54 -13 73 -29 42z"/>
</g>
</svg>
