<?xml version="1.0" standalone="no"?>
<!DOCTYPE svg PUBLIC "-//W3C//DTD SVG 20010904//EN"
 "http://www.w3.org/TR/2001/REC-SVG-20010904/DTD/svg10.dtd">
<svg version="1.0" xmlns="http://www.w3.org/2000/svg"
 width="409.000000pt" height="486.000000pt" viewBox="0 0 409.000000 486.000000"
 preserveAspectRatio="xMidYMid meet">
<metadata>
Created by potrace 1.16, written by Peter Selinger 2001-2019
</metadata>
<g transform="translate(0.000000,486.000000) scale(0.100000,-0.100000)"
fill="#5c416e" stroke="none">
<path d="M2120 4666 c-118 -19 -186 -59 -273 -166 -34 -41 -77 -123 -77 -147
0 -39 -33 -133 -47 -133 -8 0 -20 -13 -26 -30 -13 -35 -28 -37 -73 -9 -37 22
-83 20 -105 -7 -6 -8 -18 -14 -25 -14 -23 0 -51 -58 -59 -118 -8 -62 -29 -122
-43 -122 -5 0 -20 8 -33 18 -31 23 -81 39 -149 47 -30 4 -68 16 -83 27 -15 11
-45 22 -67 25 -34 5 -43 1 -73 -28 -33 -33 -35 -37 -41 -129 -8 -122 -21 -205
-39 -244 -8 -17 -23 -51 -35 -76 -46 -101 -56 -117 -104 -160 l-50 -45 -29 35
c-16 19 -36 47 -45 63 -13 25 -19 27 -77 27 -79 0 -101 -15 -136 -94 -16 -33
-36 -67 -45 -75 -33 -27 -146 -273 -146 -317 0 -11 -3 -24 -8 -28 -4 -4 -12
-42 -19 -84 -6 -42 -16 -99 -22 -127 -14 -70 -13 -300 1 -347 8 -28 23 -48 49
-65 34 -22 46 -24 119 -21 45 2 84 0 86 -4 11 -18 6 -71 -12 -124 -15 -46 -16
-58 -5 -76 9 -14 13 -56 12 -130 0 -108 0 -109 32 -146 18 -20 35 -39 38 -42
3 -3 9 -23 12 -45 4 -27 16 -48 36 -65 22 -19 30 -36 33 -65 3 -35 6 -40 38
-49 38 -11 50 -22 50 -48 0 -16 38 -78 77 -124 10 -12 30 -24 46 -28 24 -6 30
-2 48 28 20 35 71 66 107 66 11 0 38 7 61 15 l42 15 37 -36 c20 -20 76 -72
123 -117 47 -45 93 -93 102 -107 29 -46 57 -150 57 -217 0 -75 30 -151 84
-210 18 -21 41 -55 49 -76 15 -35 18 -37 61 -37 82 0 93 48 46 198 -20 61 -21
78 -12 110 6 20 13 48 16 62 5 26 63 77 74 66 3 -4 -2 -28 -11 -53 -9 -25 -15
-48 -13 -50 14 -14 47 27 89 109 32 61 58 99 76 109 35 21 57 91 42 132 -6 16
-11 55 -11 88 0 57 1 60 22 57 12 -2 28 -14 35 -28 19 -38 37 -47 95 -44 62 3
97 -15 142 -72 50 -63 77 -124 85 -194 10 -80 23 -108 55 -116 41 -10 63 10
69 62 4 39 11 53 42 78 35 30 36 33 35 96 0 36 2 86 5 112 8 57 -15 175 -52
263 -21 50 -24 68 -18 119 8 76 27 122 53 130 11 4 23 13 26 21 14 38 96 -7
146 -81 34 -51 86 -191 100 -269 35 -197 46 -415 22 -470 -7 -18 -14 -99 -17
-205 -3 -96 -9 -222 -14 -280 -19 -214 -32 -335 -40 -369 -16 -65 -63 -236
-67 -243 -3 -4 -16 -2 -29 4 -27 12 -55 -2 -55 -28 0 -11 22 -14 105 -14 81 0
105 3 105 13 0 23 -34 47 -58 40 -27 -7 -28 6 -3 55 50 99 66 180 87 427 4 44
9 87 10 95 7 28 13 125 18 265 3 77 11 176 19 220 7 44 12 112 11 150 -3 113
-24 276 -40 306 -8 16 -14 44 -14 64 0 61 -38 189 -75 255 -19 34 -35 66 -35
70 0 12 -64 60 -78 60 -19 0 -14 27 13 66 14 20 30 54 36 75 7 21 18 40 25 43
19 7 118 -29 156 -57 169 -123 235 -177 308 -252 47 -47 98 -93 115 -102 20
-11 69 -17 160 -21 119 -4 137 -3 191 17 118 45 229 105 275 151 58 58 75 124
72 293 l-1 119 -33 31 c-17 18 -56 69 -85 114 -55 85 -103 135 -219 227 -120
95 -227 136 -358 136 -116 0 -116 5 -5 117 53 54 114 119 137 145 23 28 43 43
46 37 5 -7 16 -2 31 12 19 18 24 33 24 72 0 39 6 57 30 87 47 59 88 145 95
197 3 27 10 66 15 88 17 70 19 108 25 342 l6 229 -29 31 c-16 16 -31 35 -33
42 -3 7 -25 15 -49 17 -79 9 -90 13 -90 34 0 27 -40 35 -78 16 -17 -9 -40 -16
-51 -16 -11 0 -36 -19 -56 -42 -37 -44 -142 -128 -159 -128 -20 0 -78 -54
-111 -103 -19 -29 -51 -74 -69 -102 -19 -27 -47 -81 -62 -120 -45 -118 -144
-295 -166 -295 -13 0 -9 41 8 89 14 41 35 257 35 361 0 66 -20 178 -37 212 -9
17 -30 53 -48 82 -18 28 -37 62 -41 76 -4 14 -11 30 -15 35 -5 6 -27 46 -50
90 -47 89 -76 117 -135 135 -75 23 -93 31 -114 56 -23 27 -35 28 -151 10z m24
-233 c-1 -101 11 -145 41 -157 25 -9 29 21 10 65 -15 31 -16 44 -7 64 12 26
36 33 47 14 4 -6 19 -7 35 -4 16 4 31 2 35 -5 4 -6 24 -22 45 -35 21 -13 41
-32 44 -42 3 -10 19 -23 34 -29 23 -9 28 -17 29 -45 1 -45 21 -119 32 -119 18
0 20 32 6 73 -8 23 -15 59 -15 81 0 32 2 37 14 27 8 -7 18 -27 21 -44 4 -18
20 -56 36 -84 16 -29 29 -63 29 -77 0 -13 12 -50 27 -82 24 -53 27 -71 27
-175 l1 -116 -29 -25 c-27 -23 -30 -32 -32 -89 -3 -62 -23 -131 -44 -144 -5
-3 -10 -19 -10 -35 0 -30 -15 -49 -23 -28 -2 7 -1 23 4 34 10 28 3 34 -38 34
-33 0 -34 -1 -28 -34 8 -41 -6 -53 -37 -32 -13 8 -28 12 -35 8 -14 -9 -43 -85
-50 -132 -3 -19 -10 -40 -15 -47 -5 -7 -7 -17 -3 -23 7 -11 45 30 45 49 0 6 5
11 11 11 5 0 16 15 24 34 18 43 31 51 51 32 18 -18 46 -5 63 29 9 19 10 18 10
-6 1 -31 -32 -111 -54 -129 -8 -7 -15 -17 -15 -23 0 -17 -32 -47 -50 -47 -9 0
-46 -29 -82 -65 -37 -36 -75 -65 -86 -65 -10 0 -39 -21 -64 -47 -91 -96 -154
-150 -178 -156 -14 -3 -39 -24 -55 -46 -54 -72 -50 -11 11 159 13 36 26 92 29
125 10 114 16 136 41 176 31 50 54 48 69 -5 21 -75 51 -50 61 51 3 32 1 65 -5
73 -11 16 -7 16 -104 -23 -20 -8 -32 -9 -45 -1 -15 10 -17 34 -17 230 0 231
-11 314 -47 365 -25 34 -51 133 -49 190 1 31 -4 50 -14 59 -22 18 -19 66 4 73
14 3 22 17 26 43 11 63 28 105 47 115 16 9 18 4 18 -45 0 -30 4 -58 10 -61 5
-3 20 10 31 30 16 26 26 34 39 30 23 -7 47 25 61 80 16 63 17 65 41 65 22 0
23 -2 22 -97z m1138 -297 c25 4 54 2 63 -4 16 -9 14 -12 -21 -34 -54 -34 -74
-40 -80 -25 -6 18 -44 19 -44 1 0 -8 6 -14 14 -14 8 0 17 -7 20 -16 6 -16 0
-29 -44 -86 -34 -44 -9 -33 92 38 26 20 59 33 83 35 l40 4 -3 -35 c-2 -19 -12
-45 -23 -58 -10 -14 -19 -35 -19 -47 0 -12 -6 -28 -14 -34 -7 -6 -24 -37 -37
-68 -61 -145 -76 -166 -129 -177 -16 -4 -33 -20 -48 -46 -13 -23 -34 -45 -48
-51 -14 -5 -32 -16 -40 -24 -25 -25 -32 -17 -27 26 8 58 -12 49 -62 -29 -33
-51 -44 -61 -65 -59 -20 2 -24 7 -22 26 2 14 14 33 27 43 13 10 33 43 44 74
36 96 22 127 -22 51 -14 -24 -33 -49 -41 -56 -9 -7 -13 -17 -10 -22 3 -5 -2
-9 -10 -9 -18 0 -16 15 21 159 13 52 32 104 41 116 113 147 142 185 142 193 0
5 16 20 35 33 19 13 40 35 47 48 17 32 68 63 84 51 6 -6 31 -7 56 -4z m-1686
-102 c7 -17 11 -40 8 -51 -6 -23 36 -113 66 -143 28 -28 50 -26 50 5 0 28 -36
105 -49 105 -4 0 -16 25 -26 55 -23 68 -15 83 38 66 19 -7 43 -21 52 -31 10
-11 23 -20 29 -20 16 0 54 -60 76 -120 10 -28 27 -63 36 -78 12 -19 18 -56 21
-151 6 -176 -9 -191 -78 -74 -41 69 -81 108 -181 179 -64 45 -78 59 -82 86
-10 64 -16 214 -10 221 11 10 36 -14 50 -49z m1953 -69 c0 -22 -4 -49 -9 -60
-7 -19 -8 -18 -13 5 -17 73 -18 103 -5 111 18 11 28 -9 27 -56z m-2433 -12
c24 -16 43 -32 41 -37 -4 -12 -62 -32 -114 -39 -41 -5 -43 -4 -43 20 0 27 17
64 34 75 19 13 38 9 82 -19z m2353 -22 c24 -34 26 -85 11 -261 -13 -134 -33
-225 -59 -260 -10 -14 -22 -41 -26 -60 -4 -19 -23 -58 -41 -87 -18 -28 -42
-70 -54 -92 -11 -22 -82 -103 -158 -180 -114 -116 -143 -141 -175 -146 -20 -4
-40 -11 -43 -16 -3 -5 -16 -9 -29 -9 -13 0 -35 -13 -52 -32 -16 -18 -40 -34
-53 -36 -14 -1 -53 -16 -87 -33 -58 -29 -83 -31 -83 -8 0 5 11 14 24 19 14 5
43 34 66 65 23 31 48 59 55 61 8 3 19 20 25 37 9 26 8 34 -6 44 -24 18 -55 2
-109 -56 -26 -28 -51 -48 -56 -45 -5 3 -9 23 -9 44 0 36 4 41 53 70 28 18 64
44 80 58 19 19 30 23 38 15 16 -16 85 32 100 70 7 17 31 46 52 66 52 47 77 72
106 110 14 17 42 52 62 78 21 27 59 86 85 133 26 47 57 101 70 120 13 19 35
62 49 95 15 33 36 79 46 102 10 24 19 49 19 57 0 7 7 19 15 26 8 7 15 22 15
33 0 18 25 46 42 47 4 0 16 -13 27 -29z m-2164 -75 c19 -8 35 -19 35 -24 0
-14 -87 -14 -109 0 -33 21 -29 26 32 37 4 0 23 -6 42 -13z m187 -78 c9 -7 18
-32 22 -55 5 -35 3 -44 -14 -56 -18 -12 -18 -15 -5 -20 41 -16 84 30 55 59
-18 18 0 45 24 38 45 -14 148 -101 172 -146 19 -37 18 -38 -16 -38 -26 0 -30
-4 -30 -27 1 -30 67 -134 90 -141 10 -4 12 5 6 38 -4 24 -10 48 -14 54 -10 16
-13 46 -4 46 9 -1 52 -68 52 -81 0 -5 7 -20 16 -34 16 -25 18 -55 14 -207 -1
-58 -8 -107 -16 -124 -22 -41 -27 -98 -14 -138 12 -36 3 -100 -21 -164 -16
-41 -48 -24 -101 52 -61 89 -126 163 -158 179 -14 7 -59 23 -100 36 -116 35
-160 52 -160 61 0 18 -34 19 -54 1 -12 -10 -40 -22 -64 -26 -24 -4 -51 -15
-60 -24 -9 -10 -33 -23 -52 -30 -51 -17 -69 11 -70 104 0 39 -5 99 -12 135 -6
36 -11 92 -12 125 l-1 59 65 18 c103 27 271 34 357 14 67 -15 103 -14 103 4 0
4 -32 18 -70 30 -62 20 -82 22 -153 15 -93 -9 -95 -9 -159 1 -49 7 -52 10 -48
54 4 51 16 55 223 60 151 4 188 7 172 16 -11 7 -76 17 -144 23 -68 6 -127 13
-131 16 -3 2 -28 -2 -55 -10 -61 -19 -75 -19 -75 0 0 39 88 63 260 70 54 3 92
8 161 24 3 0 12 -5 21 -11z m1252 -319 c-21 -71 -71 -168 -96 -189 -11 -9 -22
-30 -24 -46 -4 -37 -40 -124 -51 -124 -20 0 -53 13 -53 21 0 4 14 24 30 42 21
24 30 45 30 69 0 25 13 52 51 103 27 39 66 96 86 128 19 32 37 56 39 54 2 -2
-3 -28 -12 -58z m87 -11 c4 -24 11 -55 15 -70 5 -24 -1 -36 -45 -83 -28 -31
-59 -76 -70 -101 -14 -31 -26 -44 -40 -44 -49 0 -12 99 63 169 27 26 33 50 16
67 -11 11 10 74 32 102 15 17 20 10 29 -40z m-2223 -80 c19 -19 14 -28 -13
-28 -18 0 -25 5 -25 20 0 22 20 26 38 8z m2372 -29 c0 -10 -29 -50 -77 -104
-17 -19 -18 -19 -21 -2 -7 36 9 67 46 91 42 28 52 31 52 15z m-2300 -91 c28
-30 33 -55 22 -104 -8 -36 -7 -43 15 -64 13 -13 33 -40 44 -61 10 -21 32 -48
48 -60 16 -12 32 -31 36 -43 5 -19 7 -19 17 -5 9 13 16 14 39 6 20 -8 38 -7
69 3 43 14 73 7 76 -19 1 -6 2 -15 3 -21 0 -5 20 -14 44 -20 81 -20 113 -32
137 -52 l25 -20 -75 7 c-41 4 -112 8 -157 11 l-83 4 6 -30 c7 -33 8 -33 -112
-69 -64 -20 -85 -31 -163 -83 -64 -43 -166 -86 -177 -75 -5 5 140 134 261 231
38 31 25 49 -36 48 -24 -1 -49 4 -56 10 -10 8 -21 7 -41 -2 -15 -7 -55 -14
-89 -16 -72 -3 -83 -8 -83 -36 0 -27 -58 -94 -66 -75 -3 8 -4 18 -3 23 1 5 -1
30 -5 56 -7 43 -6 51 18 79 14 17 26 39 26 48 0 10 8 29 18 42 10 13 30 49 45
81 22 46 30 55 47 51 39 -10 53 15 46 83 -7 66 -1 78 44 87 14 2 28 5 32 6 4
0 17 -9 28 -21z m176 -125 c-3 -7 -14 -13 -25 -13 -29 0 -37 41 -15 75 l18 27
13 -38 c7 -21 11 -44 9 -51z m2010 62 c-14 -14 -16 -14 -16 -2 0 9 6 17 13 20
19 7 21 -1 3 -18z m-2474 -91 c-24 -52 -55 -181 -61 -254 -6 -73 -7 -75 -33
-78 -33 -4 -36 12 -14 97 8 31 22 95 31 143 10 47 26 101 37 119 18 29 21 31
35 16 14 -14 15 -21 5 -43z m558 -82 c0 -8 -5 -12 -12 -10 -14 5 -39 74 -30
83 7 7 41 -53 42 -73z m1410 23 c5 -14 16 -25 25 -25 8 0 15 -9 15 -19 0 -11
5 -21 10 -23 22 -7 -60 -138 -87 -138 -22 0 -110 -48 -125 -68 -7 -9 -34 -34
-59 -55 -40 -32 -48 -44 -54 -85 -4 -26 -19 -66 -33 -89 -32 -51 -65 -63 -174
-63 -61 0 -78 3 -78 14 0 8 -9 21 -21 29 -13 10 -19 23 -17 38 3 21 9 23 68
25 58 3 66 6 85 31 48 67 73 89 86 76 20 -20 29 -16 45 22 16 40 18 59 4 50
-6 -3 -7 1 -4 9 3 9 12 16 19 16 8 0 26 5 40 10 23 9 25 13 15 25 -10 12 -10
21 -1 41 11 25 31 25 31 -1 0 -25 39 -4 80 43 23 25 40 55 40 68 0 13 5 24 10
24 6 0 10 8 10 17 0 21 28 53 47 53 7 0 18 -11 23 -25z m-1124 -31 c9 -37 -7
-48 -82 -52 -59 -4 -66 -3 -62 13 4 22 81 65 114 65 17 0 25 -7 30 -26z m220
-23 c38 -16 70 -34 72 -40 7 -20 -27 -23 -75 -7 -25 9 -62 16 -80 16 -19 0
-43 5 -54 10 -19 11 -26 40 -11 54 12 12 75 -2 148 -33z m-31 -80 c159 -15
215 -45 215 -116 0 -45 -22 -50 -86 -21 -46 21 -55 22 -71 10 -21 -16 -100
-18 -139 -4 -41 16 -20 25 49 22 l62 -2 -25 20 c-14 11 -28 20 -32 20 -5 0 -8
6 -8 14 0 21 -15 27 -40 18 -23 -8 -103 7 -137 27 -16 9 -16 11 7 20 14 6 45
8 70 5 25 -2 86 -9 135 -13z m-747 -100 c12 -7 12 -12 1 -30 -8 -11 -18 -21
-24 -21 -6 0 -24 -11 -40 -25 -102 -86 -179 -145 -187 -145 -6 0 -7 8 -3 18 4
9 11 29 15 44 21 69 108 148 174 159 23 3 43 7 46 8 3 0 11 -3 18 -8z m2627
-12 c59 -10 145 -46 145 -60 0 -23 -16 -39 -46 -49 -45 -15 -44 -37 6 -91 22
-24 40 -47 40 -50 0 -4 21 -16 48 -28 86 -40 132 -74 153 -113 8 -14 6 -16 -8
-11 -10 3 -32 17 -50 29 -17 13 -35 24 -40 24 -5 0 -32 16 -62 35 -59 39 -81
44 -81 18 0 -31 11 -40 108 -88 28 -15 52 -30 52 -34 0 -5 19 -16 43 -25 70
-27 98 -56 104 -105 6 -49 12 -51 -69 19 -23 19 -60 53 -84 76 -30 28 -58 44
-93 52 -28 6 -68 23 -90 36 -22 14 -52 28 -68 32 -42 10 -53 23 -53 63 0 21
-6 45 -13 54 -18 25 -107 46 -227 53 -150 9 -187 30 -134 79 47 43 152 88 224
95 70 7 102 5 195 -11z m-1998 -5 c-3 -3 -12 -4 -19 -1 -8 3 -5 6 6 6 11 1 17
-2 13 -5z m1212 -23 c12 -16 21 -38 21 -49 0 -11 7 -33 15 -48 9 -17 13 -40 9
-57 -4 -22 0 -34 21 -55 25 -24 26 -32 21 -77 -4 -27 -9 -82 -13 -122 -4 -57
-10 -76 -28 -93 -18 -17 -22 -29 -18 -59 7 -53 -10 -81 -49 -81 -22 0 -39 -10
-64 -37 -19 -20 -34 -40 -34 -45 0 -4 -15 -14 -34 -22 -22 -9 -40 -27 -51 -49
-13 -27 -21 -33 -39 -30 -34 7 -66 -38 -66 -93 0 -46 -8 -74 -20 -74 -4 0 -25
25 -45 56 -39 58 -67 68 -73 25 -3 -15 6 -34 26 -55 47 -49 123 -226 97 -226
-11 0 -93 89 -125 136 -29 41 -128 124 -148 124 -26 0 -9 -35 50 -108 34 -43
78 -94 97 -115 32 -33 34 -39 20 -52 -11 -12 -22 -13 -40 -7 -13 5 -45 12 -71
16 -43 6 -54 15 -113 79 l-66 72 6 -55 c3 -30 11 -82 16 -115 9 -50 8 -67 -6
-105 -9 -25 -20 -61 -24 -80 -4 -20 -12 -44 -18 -54 -22 -39 -174 -157 -173
-133 0 1 10 45 21 97 29 129 34 170 20 170 -6 0 -27 -34 -46 -75 -52 -111 -59
-104 -70 70 -15 258 9 452 58 471 7 2 37 -18 67 -46 47 -43 56 -48 66 -35 10
13 13 12 29 -5 26 -29 37 -15 34 49 -3 67 -16 117 -41 153 -25 36 -23 67 8 95
23 21 26 30 21 66 -2 23 -8 50 -12 60 -10 25 12 21 47 -8 64 -54 77 -8 17 64
-38 46 -38 76 1 96 39 20 53 19 75 -6 15 -16 27 -19 55 -14 22 3 45 0 64 -10
37 -20 43 -19 49 5 4 15 14 20 40 20 20 0 38 4 41 9 3 5 -10 25 -30 44 -39 37
-41 67 -5 67 31 0 53 29 49 64 -2 25 1 32 19 34 14 2 26 -4 34 -20 7 -13 25
-39 41 -58 15 -19 28 -40 28 -47 0 -7 5 -13 11 -13 8 0 9 11 5 33 -18 98 -27
131 -37 143 -17 20 -5 40 31 52 25 9 32 8 36 -3 7 -16 84 -59 92 -50 3 3 0 20
-7 38 -32 78 -18 107 49 107 31 0 43 -6 59 -29z m-1343 -74 c25 -13 34 -13 69
-1 22 7 53 14 68 14 32 0 97 -27 97 -41 0 -4 17 -8 38 -7 20 0 50 -5 65 -11
46 -18 77 -14 77 9 0 26 26 26 64 1 23 -15 34 -17 49 -10 30 17 30 6 0 -57
l-28 -58 -50 2 c-46 2 -49 1 -31 -13 11 -8 24 -15 30 -15 12 0 46 -30 46 -41
0 -6 -56 -6 -85 1 -5 1 -16 2 -24 1 -11 -1 -11 -4 -1 -16 7 -8 18 -15 24 -15
7 0 17 -5 24 -12 17 -17 -3 -46 -43 -63 -19 -7 -35 -18 -35 -24 0 -21 22 -22
54 -2 18 12 38 21 45 21 18 0 13 -41 -13 -96 -29 -62 -59 -86 -92 -74 -18 7
-36 2 -80 -22 -52 -27 -59 -29 -69 -14 -11 14 -17 13 -60 -10 -64 -34 -126
-31 -135 6 -5 19 -12 25 -33 25 -24 -1 -27 3 -27 33 0 66 12 75 129 97 40 8
80 20 87 26 8 6 27 19 43 28 55 31 83 60 88 93 7 43 -14 58 -67 48 -42 -8 -63
-20 -45 -27 28 -10 37 -22 30 -42 -5 -17 -14 -21 -50 -21 -46 0 -109 19 -87
27 6 3 12 9 12 14 0 22 -100 0 -130 -28 -13 -13 -13 -16 2 -27 14 -11 13 -13
-13 -25 -16 -7 -33 -9 -39 -6 -6 4 -41 -14 -79 -39 -37 -25 -77 -46 -89 -46
-17 0 -29 -16 -56 -76 -20 -41 -47 -89 -62 -107 l-26 -32 7 55 c4 30 19 82 35
115 54 118 61 137 55 156 -4 10 -10 19 -14 19 -10 0 -41 -63 -78 -157 -31 -80
-57 -122 -69 -110 -5 4 1 70 13 145 24 163 28 177 48 208 18 28 20 74 2 74 -6
0 -28 -4 -46 -10 -19 -5 -37 -8 -39 -5 -7 7 85 93 120 111 18 10 58 22 88 27
30 5 73 12 95 17 56 12 155 5 191 -13z m2338 -51 c-9 -30 -11 -31 -40 -11
l-27 18 23 12 c32 17 52 8 44 -19z m-3244 -45 c0 -21 7 -55 15 -76 18 -42 11
-78 -13 -73 -14 3 -19 21 -25 88 -4 47 -5 91 -2 98 9 25 25 1 25 -37z m2834
-21 c7 -7 1 -10 -18 -10 -15 0 -37 -5 -49 -12 -15 -8 -60 -11 -137 -10 -95 3
-125 0 -174 -17 -32 -11 -62 -18 -67 -15 -5 3 -9 21 -9 41 0 31 2 35 23 30 12
-3 38 -2 57 3 45 12 361 3 374 -10z m511 -14 c11 -7 32 -16 46 -19 15 -4 30
-14 33 -23 5 -13 2 -14 -11 -9 -10 5 -39 15 -65 24 -26 8 -50 21 -52 28 -7 17
24 17 49 -1z m-425 -62 c22 -9 40 -20 40 -24 0 -5 8 -11 18 -13 10 -3 5 -6
-13 -7 -16 -1 -39 -3 -50 -4 -13 -1 -19 -7 -17 -18 3 -22 6 -21 -62 -4 -89 23
-103 38 -28 30 42 -4 62 -2 62 5 0 6 -6 11 -14 11 -17 0 -38 24 -29 33 11 12
51 8 93 -9z m-236 0 c19 -7 21 -34 2 -34 -26 0 -76 22 -70 31 6 10 45 12 68 3z
m-2314 -71 c0 -10 -7 -53 -15 -96 -8 -43 -15 -97 -15 -120 0 -23 -5 -59 -11
-81 l-11 -38 -23 22 c-32 30 -35 51 -15 96 11 23 15 45 11 58 -5 11 -3 33 3
48 12 33 -2 64 -28 62 -19 -2 -20 15 -2 39 10 13 21 16 39 12 14 -4 28 -2 31
4 11 17 36 13 36 -6z m2175 0 c28 -9 54 -19 58 -23 7 -6 -148 -7 -200 -1 -26
2 -12 19 25 28 53 13 62 13 117 -4z m218 -25 c19 -9 27 -21 27 -39 0 -31 35
-65 75 -74 113 -24 203 -51 231 -69 27 -17 33 -27 31 -51 -2 -30 -1 -30 58
-36 59 -5 92 -16 127 -41 14 -10 22 -10 38 0 20 12 70 17 70 6 0 -15 -22 -44
-34 -44 -8 0 -21 -11 -29 -24 -20 -30 -76 -56 -123 -56 -21 0 -46 -7 -56 -17
-16 -14 -22 -14 -43 -3 -20 11 -28 10 -50 -4 -31 -20 -31 -24 1 -57 l26 -27
-52 -11 c-28 -6 -59 -11 -70 -11 -10 0 -71 51 -135 113 -64 61 -144 131 -178
154 -188 130 -208 142 -290 167 -15 5 -16 9 -6 27 11 21 16 21 110 15 112 -8
157 -24 225 -82 63 -53 124 -94 141 -94 19 0 16 21 -7 50 -11 14 -20 30 -20
35 0 22 -32 56 -43 47 -8 -6 -32 5 -71 32 -69 48 -84 71 -40 64 16 -3 37 -9
46 -13 26 -11 36 22 12 40 -24 18 -7 19 29 3z m-1838 -8 c-3 -5 -14 -10 -23
-9 -14 0 -13 2 3 9 27 11 27 11 20 0z m2058 -42 c83 -20 90 -20 99 -5 13 25
64 21 90 -5 37 -38 72 -58 101 -58 16 0 40 -9 54 -20 14 -11 32 -20 39 -20 8
0 14 -6 14 -13 0 -8 9 -22 20 -32 16 -14 17 -20 8 -27 -36 -22 -203 8 -254 47
-18 14 -39 25 -47 25 -8 0 -48 15 -88 34 -41 18 -88 36 -104 40 -17 4 -44 18
-60 31 l-30 24 35 1 c19 0 74 -10 123 -22z m-2263 -111 c0 -1 -16 -42 -35 -91
-19 -49 -35 -94 -35 -100 0 -21 -154 -318 -168 -323 -31 -12 -30 15 3 97 19
47 44 101 54 120 11 19 29 69 41 110 12 41 24 84 28 95 6 23 81 94 100 95 6 0
12 -1 12 -3z m2845 -87 c7 -12 -12 -40 -26 -40 -10 0 -12 34 -2 43 9 10 21 9
28 -3z m-2455 -29 c0 -12 -41 -64 -60 -76 -27 -18 -85 -32 -104 -25 -15 5 -5
14 45 46 110 68 119 72 119 55z m-326 -66 c-4 -8 -10 -15 -15 -15 -4 0 -6 7
-3 15 4 8 10 15 15 15 4 0 6 -7 3 -15z m420 -116 c-3 -31 -3 -63 2 -70 4 -8 7
-111 6 -229 -3 -196 -5 -217 -23 -240 -19 -24 -31 -48 -50 -99 -9 -22 -12 -21
-69 41 -32 36 -86 85 -119 109 -125 91 -155 195 -106 369 15 52 31 100 36 107
6 6 45 14 87 16 123 8 173 21 195 51 15 21 22 24 33 15 11 -9 13 -26 8 -70z
m-475 -87 c-11 -79 -67 -192 -95 -192 -17 0 -13 20 17 83 9 21 21 52 24 70 4
18 16 46 26 63 10 17 19 40 19 50 0 11 3 15 10 8 6 -6 5 -36 -1 -82z m1297
-59 c10 -51 11 -210 1 -219 -15 -15 -28 15 -43 96 -10 62 -11 93 -4 121 14 50
37 51 46 2z m-775 -598 c2 -19 3 -25 12 -51 8 -24 -7 -74 -23 -74 -6 0 -10 29
-10 70 0 40 4 70 10 70 6 0 11 -7 11 -15z m39 -337 c0 -10 -4 -18 -9 -18 -11
0 -21 25 -21 53 1 22 1 22 15 3 8 -11 15 -28 15 -38z M3046 3628 c-9 -12 -16
-34 -16 -48 l1 -25 24 30 c25 30 33 65 16 65 -6 0 -17 -10 -25 -22z M1029
3401 c-23 -19 -24 -19 -6 -56 29 -60 57 -38 70 55 3 23 -36 24 -64 1z M849
2839 c-9 -17 -8 -23 2 -30 28 -17 54 0 44 30 -8 27 -31 27 -46 0z M1780 1751
c0 -11 5 -23 10 -26 6 -3 10 3 10 14 0 11 -4 23 -10 26 -5 3 -10 -3 -10 -14z
M1240 2616 c-42 -12 -81 -21 -86 -19 -6 2 -17 -3 -24 -12 -28 -33 41 -61 89
-36 10 6 46 11 82 12 84 2 121 9 116 23 -2 6 -14 13 -28 16 -14 4 -23 13 -23
23 2 23 -32 21 -126 -7z M1451 2564 c13 -16 29 -19 29 -5 0 5 -9 11 -21 14
-16 4 -18 3 -8 -9z M1530 2550 c0 -5 10 -10 23 -10 18 0 19 2 7 10 -19 13 -30
13 -30 0z M1447 2333 c-15 -14 -6 -23 23 -23 20 0 30 5 30 15 0 15 -40 21 -53
8z M3380 3108 c0 -23 3 -29 9 -19 8 12 4 51 -5 51 -2 0 -4 -15 -4 -32z"/>
</g>
</svg>
