<?xml version="1.0" standalone="no"?>
<!DOCTYPE svg PUBLIC "-//W3C//DTD SVG 20010904//EN"
 "http://www.w3.org/TR/2001/REC-SVG-20010904/DTD/svg10.dtd">
<svg version="1.0" xmlns="http://www.w3.org/2000/svg"
 width="280.000000pt" height="380.000000pt" viewBox="0 0 280.000000 380.000000"
 preserveAspectRatio="xMidYMid meet">
<metadata>
Created by potrace 1.16, written by Peter Selinger 2001-2019
</metadata>
<g transform="translate(0.000000,380.000000) scale(0.100000,-0.100000)"
fill="#5c416e" stroke="none">
<path d="M1343 3671 l-50 -99 -55 56 c-30 32 -58 65 -61 75 -7 18 -27 24 -27
7 0 -19 -16 -10 -34 21 -10 17 -21 27 -25 22 -12 -13 -49 -151 -66 -248 -9
-49 -21 -112 -27 -140 -30 -141 -18 -459 22 -571 21 -62 69 -148 77 -141 3 3
-9 41 -25 84 -54 139 -65 215 -59 413 6 194 22 306 63 454 l27 98 19 -23 c16
-21 18 -35 12 -104 -10 -127 -5 -344 10 -448 13 -82 13 -102 0 -149 -22 -85
-17 -258 9 -258 6 0 8 27 3 77 -6 72 1 99 9 35 6 -48 35 -141 47 -148 7 -4 8
4 3 25 -17 78 -31 190 -24 185 5 -3 9 -13 9 -22 0 -9 7 -30 16 -47 9 -16 21
-46 28 -65 12 -36 85 -138 99 -139 11 -1 9 27 -3 34 -6 4 -20 25 -31 47 -20
39 -20 47 -9 117 18 111 49 213 62 205 6 -4 8 -3 5 4 -4 5 -4 18 -1 27 6 13 9
14 16 3 6 -9 7 -6 3 9 -3 12 1 34 9 50 8 15 15 25 16 22 0 -3 10 -44 21 -90
14 -56 22 -123 24 -202 3 -124 10 -155 20 -91 3 22 8 51 10 66 7 45 -14 194
-39 272 l-23 74 33 53 c22 35 34 46 34 34 0 -16 2 -17 9 -6 14 22 20 -13 20
-128 0 -57 4 -107 9 -110 5 -3 12 -13 15 -21 4 -10 6 -8 6 7 1 12 -3 25 -9 28
-5 3 -7 18 -5 33 2 15 7 48 10 75 l6 48 25 -47 c14 -25 25 -63 26 -83 3 -99
-32 -270 -72 -354 -22 -45 -24 -57 -12 -57 5 0 19 23 33 52 24 50 24 51 29 22
l6 -29 14 25 c21 39 47 170 44 225 -2 30 0 44 5 35 8 -14 27 -113 34 -170 1
-14 6 -31 10 -37 5 -8 -4 -32 -20 -59 -44 -71 -52 -88 -48 -93 3 -2 18 9 34
26 37 39 106 180 127 258 58 219 70 348 61 670 0 11 3 34 7 50 6 22 5 26 -3
15 -8 -12 -11 -5 -11 28 0 31 -4 42 -16 42 -14 0 -158 -140 -205 -199 -20 -25
-24 -22 -32 34 -10 65 -52 215 -59 215 -8 0 -17 -9 -55 -58 l-19 -24 -24 51
c-13 28 -26 51 -30 51 -3 0 -29 -45 -57 -99z m78 -1 c11 -37 10 -41 -28 -99
-38 -59 -41 -60 -57 -42 -16 17 -14 23 21 104 20 47 40 84 45 81 4 -3 13 -22
19 -44z m119 -73 c6 -36 7 -75 2 -92 -8 -29 -9 -27 -38 45 -16 41 -30 77 -31
80 -2 3 7 21 18 40 21 34 22 34 30 12 5 -12 13 -50 19 -85z m-258 -73 c-9 -17
-26 3 -86 96 -29 44 -28 44 33 -18 45 -47 59 -67 53 -78z m534 -21 c-2 -35 -6
-67 -10 -71 -4 -4 -4 7 0 23 4 17 4 27 0 24 -8 -8 -56 -172 -51 -177 2 -2 18
24 34 59 l31 64 1 -40 c1 -40 -2 -143 -6 -180 -8 -95 -51 -304 -76 -370 l-23
-60 -12 80 c-6 44 -21 107 -34 140 -16 44 -25 94 -30 190 -5 72 -13 154 -19
184 -6 29 -11 57 -11 61 0 12 85 117 144 178 l51 53 7 -47 c4 -26 6 -76 4
-111z m-623 76 c9 -17 17 -40 17 -50 0 -11 4 -18 9 -14 5 3 16 -8 24 -24 13
-25 13 -32 2 -41 -11 -9 -15 -6 -18 12 -2 13 -3 1 -1 -27 4 -45 -44 -277 -61
-293 -6 -6 -7 55 -5 283 2 214 1 210 33 154z m269 -104 c2 -89 2 -92 5 -27 5
101 13 97 53 -31 5 -17 5 -25 -1 -22 -5 4 -10 -4 -10 -17 -1 -16 -4 -12 -9 12
l-7 35 -2 -44 -1 -45 -25 34 c-14 19 -23 41 -20 51 3 10 1 20 -4 24 -7 3 -8 0
-5 -9 9 -24 -4 -19 -31 12 -31 35 -31 42 6 103 41 65 48 54 51 -76z m-133 22
c8 -10 7 -18 -3 -32 -17 -24 -35 -12 -28 20 5 28 14 31 31 12z m232 -64 c-8
-15 -10 -10 -11 23 0 22 3 44 8 48 11 12 14 -52 3 -71z m-129 -69 c16 -21 24
-42 21 -51 -5 -11 -3 -14 6 -9 8 5 7 -3 -4 -23 -9 -19 -20 -29 -27 -25 -7 4
-8 3 -4 -4 4 -7 3 -20 -3 -29 -8 -16 -12 -12 -26 22 -8 22 -27 65 -41 96 -25
54 -26 57 -9 89 l17 32 21 -31 c12 -18 34 -48 49 -67z m-152 28 c-6 -2 -10
-15 -10 -29 0 -15 -3 -24 -6 -20 -4 3 -3 23 1 43 5 28 9 34 15 23 6 -8 6 -15
0 -17z m307 6 c0 -7 3 -35 6 -63 l7 -50 -17 47 c-9 25 -13 53 -10 62 8 19 14
21 14 4z m-237 -110 c39 -88 45 -134 15 -130 -15 2 -16 0 -7 -6 10 -7 11 -15
4 -28 -18 -34 -63 -158 -68 -188 -3 -16 -7 -33 -10 -37 -2 -5 -7 -32 -10 -61
-6 -65 -10 -69 -23 -26 -6 18 -22 65 -35 103 -14 39 -26 87 -26 107 0 41 49
202 79 257 l18 33 18 -83 c10 -46 20 -78 22 -72 3 7 -3 47 -11 89 -29 137 -16
153 34 42z m192 17 c-5 -41 -7 -42 -22 -14 -9 15 -8 24 1 35 19 23 25 16 21
-21z m-296 -1 c-4 -9 -9 -15 -11 -12 -3 3 -3 13 1 22 4 9 9 15 11 12 3 -3 3
-13 -1 -22z m334 -86 c12 -37 4 -35 -15 2 -9 17 -13 36 -9 42 6 9 9 8 12 -2 2
-8 7 -27 12 -42z M1772 3302 c-12 -26 -22 -58 -21 -72 l0 -25 11 25 c5 14 18
44 29 67 26 58 8 63 -19 5z M1735 3185 c0 -13 3 -21 8 -18 4 2 7 10 7 18 0 8
-3 16 -7 18 -5 3 -8 -5 -8 -18z M1733 3091 c-21 -53 -33 -112 -13 -66 35 85
49 125 42 125 -4 0 -17 -27 -29 -59z M1342 3215 c0 -16 2 -22 5 -12 2 9 2 23
0 30 -3 6 -5 -1 -5 -18z M1331 3114 c0 -11 3 -14 6 -6 3 7 2 16 -1 19 -3 4 -6
-2 -5 -13z M1460 3195 c1 -6 7 -21 16 -35 l15 -25 -7 25 c-7 26 -24 52 -24 35z
M1552 3080 c0 -14 2 -19 5 -12 2 6 2 18 0 25 -3 6 -5 1 -5 -13z M1581 3054 c0
-11 3 -14 6 -6 3 7 2 16 -1 19 -3 4 -6 -2 -5 -13z M1512 2970 c0 -14 2 -19 5
-12 2 6 2 18 0 25 -3 6 -5 1 -5 -13z M1411 2924 c0 -11 3 -14 6 -6 3 7 2 16
-1 19 -3 4 -6 -2 -5 -13z M1521 2874 c0 -11 3 -14 6 -6 3 7 2 16 -1 19 -3 4
-6 -2 -5 -13z M1511 2804 c0 -11 3 -14 6 -6 3 7 2 16 -1 19 -3 4 -6 -2 -5 -13z
M1394 2559 c4 -52 11 -168 16 -259 16 -292 46 -474 130 -789 l28 -104 -39 -50
c-21 -27 -39 -54 -39 -60 0 -7 20 -13 47 -15 26 -1 49 -5 52 -8 3 -3 6 -69 6
-147 0 -172 -16 -248 -89 -432 -39 -100 -51 -143 -51 -185 0 -61 20 -120 41
-120 18 0 18 2 -3 44 -14 30 -15 44 -5 103 6 37 23 97 38 133 82 206 111 352
101 521 l-6 97 75 11 c88 13 176 48 253 101 57 38 201 182 201 200 0 15 -135
12 -213 -5 -115 -24 -266 -91 -318 -141 -24 -23 -27 -24 -34 -7 -4 10 -11 34
-15 53 -4 19 -18 78 -32 130 -39 148 -54 220 -63 300 -3 25 -8 59 -11 75 -8
47 -12 94 -24 320 -14 261 -21 317 -39 323 -12 4 -13 -11 -7 -89z m696 -974
c0 -3 -16 -13 -36 -21 -36 -15 -91 -41 -318 -148 -65 -31 -122 -56 -128 -56
-5 0 -8 12 -6 27 7 63 215 173 360 192 81 10 128 12 128 6z m-68 -94 c-98 -94
-185 -142 -297 -165 -44 -9 -88 -18 -97 -20 -32 -7 -23 40 10 52 15 6 124 56
242 111 118 56 217 101 220 101 3 -1 -32 -36 -78 -79z m-449 -135 c3 -8 -5
-18 -19 -25 l-25 -11 18 25 c21 29 20 28 26 11z m7 -41 c0 -10 -10 -15 -27
-15 l-28 1 25 14 c31 18 30 18 30 0z M1830 1411 c0 -6 4 -13 10 -16 6 -3 7 1
4 9 -7 18 -14 21 -14 7z M1700 1365 c0 -5 5 -17 10 -25 5 -8 10 -10 10 -5 0 6
-5 17 -10 25 -5 8 -10 11 -10 5z M883 1133 c-15 -11 15 -45 92 -104 84 -65
207 -123 290 -138 64 -12 239 -10 251 2 3 3 -19 30 -50 60 -120 121 -255 176
-451 184 -66 2 -125 1 -132 -4z m272 -28 c79 -17 181 -64 178 -82 -2 -7 3 -10
11 -7 15 6 119 -84 111 -96 -3 -5 1 -11 7 -13 7 -3 -23 -6 -68 -6 -129 -1
-258 38 -368 112 -74 51 -116 91 -103 99 20 13 157 9 232 -7z M932 1105 c7 -7
294 -114 432 -161 86 -29 99 -24 18 7 -33 13 -59 28 -58 34 2 5 1 7 -1 3 -7
-13 -23 -9 -118 26 -243 91 -289 107 -273 91z"/>
</g>
</svg>
